<svg width="32" height="24" viewBox="0 0 32 24" fill="none" xmlns="http://www.w3.org/2000/svg">
<g clip-path="url(#clip0_18_133)">
<mask id="mask0_18_133" style="mask-type:luminance" maskUnits="userSpaceOnUse" x="-1" y="0" width="34" height="25">
<path d="M-0.000579834 0.00115967H32.001V24.0012H-0.000579834V0.00115967Z" fill="white"/>
</mask>
<g mask="url(#mask0_18_133)">
<path fill-rule="evenodd" clip-rule="evenodd" d="M-0.00062561 0.00125122H32.0056V24.0013H-0.00062561V0.00125122Z" fill="white"/>
<path fill-rule="evenodd" clip-rule="evenodd" d="M3.50594 7.29071L6.83501 2.29899L7.66696 2.85383L4.33789 7.84556L3.50594 7.29071ZM4.75386 8.12298L8.08294 3.13126L8.91489 3.6861L5.58582 8.67782L4.75386 8.12298ZM6.00179 8.95525L9.33087 3.96353L10.1628 4.51837L6.83374 9.51009L6.00179 8.95525Z" fill="#000001"/>
<path fill-rule="evenodd" clip-rule="evenodd" d="M21.8089 19.4973L25.138 14.5056L25.97 15.0604L22.6409 20.0521L21.8089 19.4973ZM23.0569 20.3296L26.3859 15.3378L27.2179 15.8927L23.8888 20.8844L23.0569 20.3296ZM24.3048 21.1618L27.6339 16.1701L28.4658 16.7249L25.1367 21.7167L24.3048 21.1618Z" fill="#000001"/>
<path fill-rule="evenodd" clip-rule="evenodd" d="M27.0785 19.7062L22.9188 16.932L23.1962 16.516L27.356 19.2902L27.0785 19.7062Z" fill="white"/>
<path fill-rule="evenodd" clip-rule="evenodd" d="M10.9941 8.67876C11.8771 7.35487 13.2497 6.43595 14.8102 6.12414C16.3706 5.81234 17.9911 6.13319 19.3149 7.01611C20.6388 7.89904 21.5578 9.27171 21.8696 10.8322C22.1814 12.3926 21.8605 14.013 20.9776 15.3369L10.9941 8.67876Z" fill="#CD2E3A"/>
<path fill-rule="evenodd" clip-rule="evenodd" d="M10.9941 8.67875C10.1112 10.0026 9.79037 11.623 10.1022 13.1835C10.414 14.7439 11.3329 16.1166 12.6568 16.9995C13.9807 17.8825 15.6011 18.2033 17.1615 17.8915C18.722 17.5797 20.0947 16.6608 20.9776 15.3369C21.419 14.675 21.5795 13.8648 21.4236 13.0845C21.2677 12.3043 20.8082 11.618 20.1463 11.1765C19.4843 10.735 18.6741 10.5746 17.8939 10.7305C17.1137 10.8864 16.4273 11.3459 15.9859 12.0078L10.9941 8.67875Z" fill="#0047A0"/>
<path d="M15.9859 12.0078C16.9052 10.6294 16.533 8.76674 15.1545 7.84744C13.7761 6.92814 11.9134 7.30034 10.9941 8.67876C10.0748 10.0572 10.447 11.9199 11.8255 12.8392C13.2039 13.7585 15.0666 13.3863 15.9859 12.0078Z" fill="#CD2E3A"/>
<path fill-rule="evenodd" clip-rule="evenodd" d="M6.84877 21.7186L3.51969 16.7268L4.35165 16.172L7.68072 21.1637L6.84877 21.7186ZM8.0967 20.8863L4.76762 15.8946L5.59957 15.3397L8.92865 20.3315L8.0967 20.8863ZM9.34463 20.054L6.01555 15.0623L6.8475 14.5075L10.1766 19.4992L9.34463 20.054Z" fill="#000001"/>
<path fill-rule="evenodd" clip-rule="evenodd" d="M25.1518 9.51199L21.8227 4.52027L22.6546 3.96543L25.9837 8.95715L25.1518 9.51199ZM26.3997 8.67972L23.0706 3.688L23.9026 3.13316L27.2316 8.12488L26.3997 8.67972ZM27.6476 7.84746L24.3185 2.85573L25.1505 2.30089L28.4796 7.29261L27.6476 7.84746Z" fill="#000001"/>
<path fill-rule="evenodd" clip-rule="evenodd" d="M7.61082 17.9049L6.36288 18.7371L6.08546 18.3212L7.33339 17.4889L7.61082 17.9049ZM24.6659 6.53056L23.21 7.50153L22.9325 7.08556L24.3885 6.11458L24.6659 6.53056ZM27.1617 4.86602L25.9138 5.69829L25.6364 5.28231L26.8843 4.45004L27.1617 4.86602Z" fill="white"/>
</g>
</g>
<defs>
<clipPath id="clip0_18_133">
<rect width="32" height="24" rx="3" fill="white"/>
</clipPath>
</defs>
</svg>
