<svg width="21" height="21" viewBox="0 0 21 21" fill="none" xmlns="http://www.w3.org/2000/svg">
<g clip-path="url(#clip0_16_102)">
<path d="M9.15878 1.55039C9.17518 1.48887 9.2121 1.43555 9.25722 1.39453C9.66327 1.34121 10.0775 1.3125 10.5 1.3125C10.9225 1.3125 11.3367 1.34121 11.7428 1.39453C11.7879 1.43555 11.8207 1.48887 11.8412 1.55039L12.4031 3.50684C12.5467 4.00313 12.9035 4.37227 13.326 4.57734C13.6377 4.725 13.933 4.89727 14.216 5.09004C14.6016 5.35664 15.106 5.47969 15.6064 5.35664L17.5834 4.86445C17.6449 4.84805 17.7064 4.85215 17.7639 4.87266C17.9853 5.15566 18.1904 5.45508 18.375 5.7668L18.5514 6.07031C18.7236 6.37793 18.8754 6.69785 19.0107 7.02598C18.9984 7.0875 18.9697 7.14492 18.9246 7.19004L17.5055 8.6543C17.1486 9.02344 17.0051 9.51973 17.042 9.9873C17.0543 10.1555 17.0625 10.3277 17.0625 10.5C17.0625 10.6723 17.0543 10.8445 17.042 11.0127C17.0051 11.4803 17.1486 11.9766 17.5055 12.3457L18.9205 13.81C18.9656 13.8551 18.9943 13.9125 19.0066 13.974C18.8713 14.3021 18.7195 14.6221 18.5473 14.9338L18.375 15.2332C18.1863 15.5449 17.9812 15.8402 17.7639 16.1273C17.7064 16.1479 17.6449 16.1479 17.5834 16.1355L15.6064 15.6434C15.106 15.5203 14.6057 15.6434 14.216 15.91C13.933 16.1027 13.6377 16.275 13.326 16.4227C12.9035 16.6236 12.5426 16.9969 12.4031 17.4932L11.8412 19.4496C11.8248 19.5111 11.7879 19.5645 11.7428 19.6055C11.3367 19.6588 10.9225 19.6875 10.5 19.6875C10.0775 19.6875 9.66327 19.6588 9.25722 19.6055C9.2121 19.5645 9.17929 19.5111 9.15878 19.4496L8.59686 17.4932C8.45331 16.9969 8.09647 16.6277 7.67401 16.4227C7.36229 16.275 7.06698 16.1027 6.78397 15.91C6.39843 15.6434 5.89394 15.5203 5.39354 15.6434L3.41659 16.1355C3.35507 16.152 3.29354 16.1479 3.23612 16.1273C3.01464 15.8402 2.80956 15.5449 2.62089 15.2332L2.44862 14.9338C2.27636 14.6262 2.1246 14.3063 1.98925 13.974C2.00155 13.9125 2.03026 13.8551 2.07538 13.81L3.49452 12.3457C3.85136 11.9766 3.99491 11.4803 3.958 11.0127C3.94569 10.8445 3.93749 10.6723 3.93749 10.5C3.93749 10.3277 3.94569 10.1555 3.958 9.9873C3.99491 9.51973 3.85136 9.02344 3.49452 8.6543L2.07948 7.18594C2.03436 7.14082 2.00565 7.0834 1.99335 7.02187C2.1287 6.69375 2.28046 6.37383 2.45272 6.06211L2.62499 5.7627C2.81366 5.45098 3.01874 5.15566 3.24022 4.86855C3.29765 4.84805 3.35917 4.84805 3.42069 4.86035L5.39765 5.35254C5.89804 5.47559 6.39843 5.35254 6.78808 5.08594C7.07108 4.89316 7.3664 4.7209 7.67811 4.57324C8.10058 4.37227 8.46151 3.99902 8.60097 3.50273L9.16288 1.54629L9.15878 1.55039ZM10.5 0C9.96679 0 9.43768 0.0410156 8.92499 0.118945C8.85526 0.13125 8.78554 0.151758 8.71991 0.18457C8.33026 0.385547 8.02675 0.742383 7.8996 1.18945L7.33768 3.1459C7.31308 3.23613 7.23515 3.33047 7.108 3.39199C6.73476 3.56836 6.37792 3.77754 6.04159 4.00723C5.92675 4.08516 5.8037 4.10566 5.71347 4.08105L3.73651 3.58887C3.28944 3.47812 2.83007 3.56426 2.46093 3.79805C2.3994 3.83496 2.34608 3.88418 2.30097 3.9416C2.00976 4.30664 1.73905 4.68809 1.49706 5.09004L1.49296 5.10234L1.31249 5.41406L1.30839 5.42637C1.0869 5.82832 0.890029 6.24258 0.721865 6.67324C0.697255 6.73887 0.680849 6.80859 0.676747 6.87832C0.65624 7.32129 0.812099 7.76426 1.13612 8.10059L2.55116 9.56484C2.61679 9.63457 2.6619 9.74531 2.6496 9.88477C2.63319 10.0898 2.62499 10.2949 2.62499 10.5C2.62499 10.7051 2.63319 10.9143 2.6496 11.1152C2.6619 11.2547 2.61679 11.3695 2.55116 11.4352L1.13612 12.9035C0.812099 13.2398 0.65624 13.6828 0.676747 14.1258C0.680849 14.1955 0.697255 14.2652 0.721865 14.3309C0.890029 14.7615 1.0869 15.1758 1.30839 15.5777L1.31249 15.59L1.49296 15.9018L1.49706 15.9141C1.73905 16.316 2.00565 16.7016 2.30097 17.0666C2.34608 17.124 2.3994 17.1732 2.46093 17.2102C2.83007 17.4439 3.28944 17.5301 3.73651 17.4193L5.71347 16.9271C5.8037 16.9025 5.92675 16.923 6.04159 17.001C6.37792 17.2348 6.73476 17.4398 7.108 17.6162C7.23515 17.6777 7.30897 17.7721 7.33768 17.8623L7.8996 19.8105C8.02675 20.2535 8.33026 20.6104 8.71991 20.8154C8.78554 20.8482 8.85116 20.8729 8.92499 20.8811C9.43768 20.959 9.96679 21 10.5 21C11.0332 21 11.5623 20.959 12.075 20.8811C12.1447 20.8688 12.2144 20.8482 12.2801 20.8154C12.6697 20.6145 12.9732 20.2576 13.1004 19.8105L13.6623 17.8541C13.6869 17.7639 13.7648 17.6695 13.892 17.608C14.2652 17.4316 14.6221 17.2225 14.9584 16.9928C15.0732 16.9148 15.1963 16.8943 15.2865 16.9189L17.2635 17.4111C17.7105 17.5219 18.1699 17.4398 18.5391 17.202C18.6006 17.165 18.6539 17.1158 18.699 17.0584C18.9902 16.6934 19.2568 16.3119 19.4988 15.91L19.507 15.8977L19.6875 15.5859L19.6916 15.5736C19.9131 15.1758 20.11 14.7574 20.2781 14.3268C20.3027 14.2611 20.3191 14.1914 20.3232 14.1217C20.3437 13.6787 20.1879 13.2357 19.8639 12.8994L18.4488 11.4352C18.3832 11.3654 18.3381 11.2547 18.3504 11.1152C18.3668 10.9102 18.375 10.7051 18.375 10.5C18.375 10.2949 18.3668 10.0857 18.3504 9.88477C18.3381 9.74531 18.3832 9.63047 18.4488 9.56484L19.8639 8.10059C20.1879 7.76426 20.3437 7.32129 20.3232 6.87832C20.3191 6.80859 20.3027 6.73887 20.2781 6.67324C20.11 6.24258 19.9131 5.82832 19.6916 5.42637L19.6875 5.41406L19.507 5.10234L19.4988 5.09004C19.2568 4.68809 18.9902 4.30254 18.699 3.9416C18.6539 3.88418 18.6006 3.83496 18.5391 3.79805C18.1699 3.56426 17.7105 3.47812 17.2635 3.58887L15.2865 4.08105C15.1963 4.10566 15.0732 4.08516 14.9584 4.00723C14.6221 3.77344 14.2652 3.56836 13.892 3.39199C13.7648 3.33047 13.691 3.23613 13.6623 3.1459L13.1004 1.18945C12.9732 0.746484 12.6697 0.389648 12.2801 0.18457C12.2144 0.151758 12.1488 0.127148 12.075 0.118945C11.5623 0.0410156 11.0332 0 10.5 0ZM8.20311 10.5C8.20311 9.89083 8.44511 9.30661 8.87585 8.87586C9.3066 8.44512 9.89082 8.20313 10.5 8.20312C11.1092 8.20312 11.6934 8.44512 12.1241 8.87586C12.5549 9.30661 12.7969 9.89083 12.7969 10.5C12.7969 11.1092 12.5549 11.6934 12.1241 12.1241C11.6934 12.5549 11.1092 12.7969 10.5 12.7969C9.89082 12.7969 9.3066 12.5549 8.87585 12.1241C8.44511 11.6934 8.20311 11.1092 8.20311 10.5ZM14.1094 10.5C14.1094 9.54273 13.7291 8.62468 13.0522 7.94779C12.3753 7.2709 11.4573 6.89062 10.5 6.89062C9.54272 6.89062 8.62466 7.2709 7.94778 7.94779C7.27089 8.62468 6.89061 9.54273 6.89061 10.5C6.89061 11.4573 7.27089 12.3753 7.94778 13.0522C8.62466 13.7291 9.54272 14.1094 10.5 14.1094C11.4573 14.1094 12.3753 13.7291 13.0522 13.0522C13.7291 12.3753 14.1094 11.4573 14.1094 10.5Z" fill="white"/>
</g>
<defs>
<clipPath id="clip0_16_102">
<rect width="21" height="21" fill="white"/>
</clipPath>
</defs>
</svg>
