<svg width="20" height="20" viewBox="0 0 20 20" fill="none" xmlns="http://www.w3.org/2000/svg">
<path d="M9.99999 18.3333C8.84721 18.3333 7.76388 18.1145 6.74999 17.6767C5.7361 17.2389 4.85416 16.6453 4.10416 15.8958C3.35416 15.1464 2.76055 14.2644 2.32332 13.25C1.8861 12.2356 1.66721 11.1522 1.66666 10C1.6661 8.84778 1.88499 7.76445 2.32332 6.75001C2.76166 5.73556 3.35527 4.85362 4.10416 4.10417C4.85305 3.35473 5.73499 2.76112 6.74999 2.32334C7.76499 1.88556 8.84832 1.66667 9.99999 1.66667C11.1517 1.66667 12.235 1.88556 13.25 2.32334C14.265 2.76112 15.1469 3.35473 15.8958 4.10417C16.6447 4.85362 17.2386 5.73556 17.6775 6.75001C18.1164 7.76445 18.335 8.84778 18.3333 10C18.3317 11.1522 18.1128 12.2356 17.6767 13.25C17.2405 14.2644 16.6469 15.1464 15.8958 15.8958C15.1447 16.6453 14.2628 17.2392 13.25 17.6775C12.2372 18.1158 11.1539 18.3345 9.99999 18.3333ZM9.99999 16.6667C10.75 16.6667 11.4722 16.5453 12.1667 16.3025C12.8611 16.0597 13.5 15.7089 14.0833 15.25L4.74999 5.91667C4.29166 6.50001 3.94082 7.13889 3.69749 7.83334C3.45416 8.52778 3.33277 9.25001 3.33332 10C3.33332 11.8611 3.97916 13.4375 5.27082 14.7292C6.56249 16.0208 8.13888 16.6667 9.99999 16.6667ZM15.25 14.0833C15.7083 13.5 16.0592 12.8611 16.3025 12.1667C16.5458 11.4722 16.6672 10.75 16.6667 10C16.6667 8.13889 16.0208 6.56251 14.7292 5.27084C13.4375 3.97917 11.8611 3.33334 9.99999 3.33334C9.24999 3.33334 8.52777 3.45473 7.83332 3.69751C7.13888 3.94028 6.49999 4.29112 5.91666 4.75001L15.25 14.0833Z" fill="#45495E"/>
</svg>
