<svg width="20" height="20" viewBox="0 0 20 20" fill="none" xmlns="http://www.w3.org/2000/svg">
<path fill-rule="evenodd" clip-rule="evenodd" d="M9.99999 1.66667C7.78985 1.66667 5.67024 2.54465 4.10743 4.10745C2.54463 5.67025 1.66666 7.78987 1.66666 10C1.66666 11.0944 1.8822 12.178 2.30099 13.189C2.71978 14.2001 3.33361 15.1187 4.10743 15.8926C4.88125 16.6664 5.79991 17.2802 6.81096 17.699C7.82201 18.1178 8.90564 18.3333 9.99999 18.3333C11.0943 18.3333 12.178 18.1178 13.189 17.699C14.2001 17.2802 15.1187 16.6664 15.8925 15.8926C16.6664 15.1187 17.2802 14.2001 17.699 13.189C18.1178 12.178 18.3333 11.0944 18.3333 10C18.3333 7.78987 17.4553 5.67025 15.8925 4.10745C14.3297 2.54465 12.2101 1.66667 9.99999 1.66667ZM5.28594 5.28596C6.53619 4.03572 8.23188 3.33334 9.99999 3.33334C11.7681 3.33334 13.4638 4.03572 14.714 5.28596C15.9643 6.5362 16.6667 8.2319 16.6667 10C16.6667 10.8755 16.4942 11.7424 16.1592 12.5512C15.8242 13.3601 15.3331 14.095 14.714 14.714C14.095 15.3331 13.36 15.8242 12.5512 16.1592C11.7424 16.4942 10.8755 16.6667 9.99999 16.6667C9.12451 16.6667 8.2576 16.4942 7.44877 16.1592C6.63993 15.8242 5.905 15.3331 5.28594 14.714C4.66689 14.095 4.17582 13.3601 3.84079 12.5512C3.50576 11.7424 3.33332 10.8755 3.33332 10C3.33332 8.2319 4.0357 6.5362 5.28594 5.28596ZM10.8333 5.83334C10.8333 5.3731 10.4602 5.00001 9.99999 5.00001C9.53975 5.00001 9.16666 5.3731 9.16666 5.83334V10C9.16666 10.221 9.25445 10.433 9.41073 10.5893L11.9107 13.0893C12.2362 13.4147 12.7638 13.4147 13.0892 13.0893C13.4147 12.7638 13.4147 12.2362 13.0892 11.9107L10.8333 9.65483V5.83334Z" fill="#45495E"/>
</svg>
