<svg width="16" height="16" viewBox="0 0 16 16" fill="none" xmlns="http://www.w3.org/2000/svg">
<path d="M8.14361 5.45884H3.54874C3.24408 5.45884 2.9519 5.57783 2.73648 5.78963C2.52105 6.00144 2.40002 6.28871 2.40002 6.58825V8.84707C2.40002 9.14661 2.52105 9.43388 2.73648 9.64569C2.9519 9.85749 3.24408 9.97648 3.54874 9.97648H4.1231V12.2353C4.1231 12.3851 4.18361 12.5287 4.29133 12.6346C4.39904 12.7405 4.54513 12.8 4.69746 12.8H5.84618C5.99851 12.8 6.1446 12.7405 6.25231 12.6346C6.36002 12.5287 6.42054 12.3851 6.42054 12.2353V9.97648H8.14361L11.0154 12.2353V3.20001L8.14361 5.45884ZM13.6 7.71766C13.6 8.68331 13.0486 9.5586 12.1641 9.97648V5.45884C13.0429 5.88237 13.6 6.75766 13.6 7.71766Z" fill="#E42323"/>
</svg>
