<svg width="50" height="50" viewBox="0 0 50 50" fill="none" xmlns="http://www.w3.org/2000/svg">
<rect width="50" height="50" rx="25" fill="#E8E8E8"/>
<g clip-path="url(#clip0_8_927)">
<path fill-rule="evenodd" clip-rule="evenodd" d="M25 30C29.9706 30 34 25.9706 34 21C34 16.0294 29.9706 12 25 12C20.0294 12 16 16.0294 16 21C16 25.9706 20.0294 30 25 30ZM25 59C37.7025 59 48 53.6274 48 47C48 40.3726 37.7025 35 25 35C12.2975 35 2 40.3726 2 47C2 53.6274 12.2975 59 25 59Z" fill="#777777"/>
</g>
<defs>
<clipPath id="clip0_8_927">
<rect x="2" y="2" width="46" height="46" rx="23" fill="white"/>
</clipPath>
</defs>
</svg>
