<svg width="50" height="50" viewBox="0 0 50 50" fill="none" xmlns="http://www.w3.org/2000/svg">
<rect width="50" height="50" rx="25" fill="#41BA45"/>
<path fill-rule="evenodd" clip-rule="evenodd" d="M31.4406 12.4424C33.5199 13.3719 35.6704 14.1339 37.8715 14.7212C38.2999 14.8296 38.6 15.2151 38.6 15.657V22.9927C38.6 35.3844 26.6556 40.4123 25.4304 40.8518C25.3928 40.8652 25.357 40.8769 25.321 40.8887C25.2886 40.8992 25.2562 40.9098 25.2224 40.9217C25.0785 40.9724 24.9216 40.9724 24.7777 40.9217L24.6697 40.8837C24.6687 40.8833 24.6669 40.8826 24.6644 40.8816C24.3376 40.7583 11.4 35.8749 11.4 22.9927V15.657C11.4 15.2151 11.7002 14.8296 12.1286 14.7212C14.3327 14.1376 16.4864 13.3788 18.5692 12.4521C20.6146 11.5664 22.5891 10.5258 24.4755 9.33942C24.7959 9.13211 25.2095 9.12931 25.5343 9.32972C27.4207 10.5161 29.3952 11.5567 31.4406 12.4424ZM30.9982 19.6987L22.5609 28.136L19.0267 24.5769C18.8276 24.3785 18.5913 24.2789 18.3179 24.2782C18.0444 24.2776 17.8078 24.3771 17.608 24.5769C17.4082 24.7767 17.3044 25.0133 17.2964 25.2867C17.2885 25.5602 17.384 25.7965 17.5831 25.9956L21.864 30.2765C22.0631 30.4756 22.2954 30.5751 22.5609 30.5751C22.8264 30.5751 23.0587 30.4756 23.2578 30.2765L32.392 21.1174C32.5911 20.9189 32.6907 20.6826 32.6907 20.4085C32.6907 20.1344 32.5911 19.8978 32.392 19.6987C32.1929 19.4996 31.9606 19.4 31.6951 19.4C31.4297 19.4 31.1974 19.4996 30.9982 19.6987Z" fill="white"/>
</svg>
