<svg width="50" height="50" viewBox="0 0 50 50" fill="none" xmlns="http://www.w3.org/2000/svg">
<rect width="50" height="50" rx="25" fill="#E42323"/>
<path d="M13.8452 35.522C13.6242 35.522 13.4287 35.4696 13.2587 35.3647C13.0887 35.2599 12.9564 35.1216 12.862 34.9497C12.76 34.7806 12.7033 34.5979 12.692 34.4014C12.6826 34.204 12.7383 34.0052 12.8592 33.805L24.0083 14.5723C24.1292 14.3721 24.2747 14.2267 24.4447 14.136C24.6147 14.0453 24.7998 14 25 14C25.2002 14 25.3849 14.0453 25.5539 14.136C25.723 14.2267 25.8684 14.3721 25.9903 14.5723L37.1408 33.805C37.2617 34.0052 37.317 34.2036 37.3066 34.4C37.2971 34.5983 37.2405 34.7816 37.1366 34.9497C37.0421 35.1216 36.9099 35.2599 36.7399 35.3647C36.5699 35.4696 36.3749 35.522 36.1548 35.522H13.8452ZM25 32.1447C25.2474 32.1447 25.4548 32.0611 25.6219 31.8939C25.7891 31.7267 25.8722 31.5194 25.8713 31.272C25.8703 31.0246 25.7867 30.8177 25.6205 30.6515C25.4543 30.4853 25.2474 30.4012 25 30.3993C24.7526 30.3974 24.5457 30.481 24.3795 30.6501C24.2133 30.8191 24.1297 31.0264 24.1288 31.272C24.1278 31.5176 24.2114 31.7249 24.3795 31.8939C24.5476 32.063 24.7544 32.1466 25 32.1447ZM25 28.9841C25.2021 28.9841 25.3707 28.9161 25.5058 28.7801C25.6408 28.6441 25.7083 28.476 25.7083 28.2757V22.6091C25.7083 22.4079 25.6403 22.2393 25.5043 22.1033C25.3683 21.9673 25.1998 21.8998 24.9986 21.9008C24.7974 21.9017 24.6293 21.9692 24.4943 22.1033C24.3592 22.2374 24.2917 22.406 24.2917 22.6091V28.2757C24.2917 28.476 24.3597 28.6441 24.4957 28.7801C24.6317 28.9161 24.8003 28.9841 25.0014 28.9841" fill="white"/>
</svg>
