<svg width="80" height="80" viewBox="0 0 80 80" fill="none" xmlns="http://www.w3.org/2000/svg">
<path d="M72.1786 14.303C66.676 12.8348 61.2998 10.9297 56.1014 8.60606C50.9879 6.39179 46.0516 3.79026 41.3357 0.824243V0.824243C40.5238 0.323227 39.4896 0.330232 38.6886 0.848485V0.848485C33.9727 3.81451 29.0364 6.41604 23.9229 8.6303C18.7159 10.9469 13.3316 12.8439 7.82143 14.303V14.303C6.75033 14.5739 6 15.5376 6 16.6424V34.9818C6 67.4424 38.8586 79.5879 39.1743 79.7091L39.4441 79.8042C39.8039 79.9309 40.1961 79.9309 40.5559 79.8042V79.8042C40.7345 79.7412 40.8977 79.6933 41.0759 79.6294C44.139 78.5307 74 65.961 74 34.9818V16.6424C74 15.5376 73.2497 14.5739 72.1786 14.303V14.303Z" fill="white"/>
<g filter="url(#filter0_ii_16_104)">
<path d="M69.4444 16.4445C64.4094 15.0986 59.49 13.3523 54.7333 11.2222C50.0543 9.19249 45.5374 6.80775 41.2222 4.0889V4.0889C40.4795 3.62975 39.5327 3.63619 38.8 4.11112V4.11112C34.4848 6.82997 29.9679 9.21471 25.2889 11.2445C20.5243 13.368 15.5975 15.1069 10.5556 16.4445V16.4445C9.57537 16.6928 8.88889 17.5748 8.88889 18.586V35.4C8.88889 65.1556 38.9556 76.2889 39.2444 76.4L39.4913 76.4871C39.8205 76.6033 40.1795 76.6033 40.5087 76.4871V76.4871C40.6721 76.4295 40.8214 76.3855 40.9845 76.3269C43.7872 75.3198 71.1111 63.7976 71.1111 35.4V18.586C71.1111 17.5748 70.4246 16.6928 69.4444 16.4445V16.4445Z" fill="url(#paint0_linear_16_104)"/>
</g>
<path d="M45.3761 44.8263L44.4661 45.7323C44.4661 45.7323 42.3001 47.8843 36.3901 42.0083C30.4801 36.1323 32.6461 33.9803 32.6461 33.9803L33.2181 33.4083C34.6321 32.0043 34.7661 29.7483 33.5321 28.1003L31.0121 24.7343C29.4841 22.6943 26.5341 22.4243 24.7841 24.1643L21.6441 27.2843C20.7781 28.1483 20.1981 29.2643 20.2681 30.5043C20.4481 33.6783 21.8841 40.5043 29.8921 48.4683C38.3861 56.9123 46.3561 57.2483 49.6141 56.9443C50.6461 56.8483 51.5421 56.3243 52.2641 55.6043L55.1041 52.7803C57.0241 50.8743 56.4841 47.6043 54.0281 46.2703L50.2081 44.1923C48.5961 43.3183 46.6361 43.5743 45.3761 44.8263Z" fill="white"/>
<path d="M49.4667 30.8L48.0333 29.3667C47.9111 29.2444 47.7556 29.1833 47.5667 29.1833C47.3778 29.1833 47.2222 29.2444 47.1 29.3667C46.9778 29.4889 46.9167 29.6444 46.9167 29.8333C46.9167 30.0222 46.9778 30.1778 47.1 30.3L49 32.2C49.1333 32.3333 49.2889 32.4 49.4667 32.4C49.6444 32.4 49.8 32.3333 49.9333 32.2L53.7 28.4333C53.8222 28.3111 53.8833 28.1555 53.8833 27.9667C53.8833 27.7778 53.8222 27.6222 53.7 27.5C53.5778 27.3778 53.4222 27.3167 53.2333 27.3167C53.0444 27.3167 52.8889 27.3778 52.7667 27.5L49.4667 30.8ZM50.4 36.2667C49.4778 36.2667 48.6111 36.0915 47.8 35.7413C46.9889 35.3911 46.2833 34.9162 45.6833 34.3167C45.0833 33.7171 44.6084 33.0115 44.2587 32.2C43.9089 31.3884 43.7338 30.5218 43.7333 29.6C43.7329 28.6782 43.908 27.8115 44.2587 27C44.6093 26.1884 45.0842 25.4829 45.6833 24.8833C46.2824 24.2838 46.988 23.8089 47.8 23.4587C48.612 23.1084 49.4787 22.9333 50.4 22.9333C51.3213 22.9333 52.188 23.1084 53 23.4587C53.812 23.8089 54.5176 24.2838 55.1167 24.8833C55.7158 25.4829 56.1909 26.1884 56.542 27C56.8931 27.8115 57.068 28.6782 57.0667 29.6C57.0653 30.5218 56.8902 31.3884 56.5413 32.2C56.1924 33.0115 55.7176 33.7171 55.1167 34.3167C54.5158 34.9162 53.8102 35.3913 53 35.742C52.1898 36.0927 51.3231 36.2675 50.4 36.2667Z" fill="white"/>
<defs>
<filter id="filter0_ii_16_104" x="2.88889" y="1.74963" width="74.2222" height="76.8246" filterUnits="userSpaceOnUse" color-interpolation-filters="sRGB">
<feFlood flood-opacity="0" result="BackgroundImageFix"/>
<feBlend mode="normal" in="SourceGraphic" in2="BackgroundImageFix" result="shape"/>
<feColorMatrix in="SourceAlpha" type="matrix" values="0 0 0 0 0 0 0 0 0 0 0 0 0 0 0 0 0 0 127 0" result="hardAlpha"/>
<feOffset dx="-6" dy="-2"/>
<feGaussianBlur stdDeviation="15"/>
<feComposite in2="hardAlpha" operator="arithmetic" k2="-1" k3="1"/>
<feColorMatrix type="matrix" values="0 0 0 0 1 0 0 0 0 1 0 0 0 0 1 0 0 0 0.12 0"/>
<feBlend mode="normal" in2="shape" result="effect1_innerShadow_16_104"/>
<feColorMatrix in="SourceAlpha" type="matrix" values="0 0 0 0 0 0 0 0 0 0 0 0 0 0 0 0 0 0 127 0" result="hardAlpha"/>
<feOffset dx="6" dy="2"/>
<feGaussianBlur stdDeviation="15"/>
<feComposite in2="hardAlpha" operator="arithmetic" k2="-1" k3="1"/>
<feColorMatrix type="matrix" values="0 0 0 0 0 0 0 0 0 0 0 0 0 0 0 0 0 0 0.12 0"/>
<feBlend mode="normal" in2="effect1_innerShadow_16_104" result="effect2_innerShadow_16_104"/>
</filter>
<linearGradient id="paint0_linear_16_104" x1="8.88889" y1="12.646" x2="71.1111" y2="67.354" gradientUnits="userSpaceOnUse">
<stop stop-color="#369639"/>
<stop offset="1" stop-color="#41BA45"/>
</linearGradient>
</defs>
</svg>
