<svg width="80" height="80" viewBox="0 0 80 80" fill="none" xmlns="http://www.w3.org/2000/svg">
<path d="M72.1786 14.303C66.676 12.8348 61.2998 10.9297 56.1014 8.60606C50.9879 6.39179 46.0516 3.79026 41.3357 0.824243V0.824243C40.5238 0.323227 39.4896 0.330232 38.6886 0.848485V0.848485C33.9727 3.81451 29.0364 6.41604 23.9229 8.6303C18.7159 10.9469 13.3316 12.8439 7.82143 14.303V14.303C6.75033 14.5739 6 15.5376 6 16.6424V34.9818C6 67.4424 38.8586 79.5879 39.1743 79.7091L39.4441 79.8042C39.8039 79.9309 40.1961 79.9309 40.5559 79.8042V79.8042C40.7345 79.7412 40.8977 79.6933 41.0759 79.6294C44.139 78.5307 74 65.961 74 34.9818V16.6424C74 15.5376 73.2497 14.5739 72.1786 14.303V14.303Z" fill="white"/>
<g filter="url(#filter0_ii_16_114)">
<path d="M69.4445 16.4445C64.4094 15.0986 59.49 13.3523 54.7333 11.2222C50.0543 9.19249 45.5374 6.80775 41.2222 4.0889V4.0889C40.4795 3.62975 39.5328 3.63619 38.8 4.11112V4.11112C34.4848 6.82997 29.9679 9.21471 25.2889 11.2445C20.5244 13.368 15.5975 15.1069 10.5556 16.4445V16.4445C9.57539 16.6928 8.8889 17.5748 8.8889 18.586V35.4C8.8889 65.1556 38.9556 76.2889 39.2445 76.4L39.4913 76.4871C39.8205 76.6033 40.1795 76.6033 40.5087 76.4871V76.4871C40.6721 76.4295 40.8214 76.3855 40.9845 76.3269C43.7872 75.3198 71.1111 63.7976 71.1111 35.4V18.586C71.1111 17.5748 70.4246 16.6928 69.4445 16.4445V16.4445Z" fill="url(#paint0_linear_16_114)"/>
</g>
<path d="M45.3761 44.8263L44.4661 45.7323C44.4661 45.7323 42.3001 47.8843 36.3901 42.0083C30.4801 36.1323 32.6461 33.9803 32.6461 33.9803L33.2181 33.4083C34.6321 32.0043 34.7661 29.7483 33.5321 28.1003L31.0121 24.7343C29.4841 22.6943 26.5341 22.4243 24.7841 24.1643L21.6441 27.2843C20.7781 28.1483 20.1981 29.2643 20.2681 30.5043C20.4481 33.6783 21.8841 40.5043 29.8921 48.4683C38.3861 56.9123 46.3561 57.2483 49.6141 56.9443C50.6461 56.8483 51.5421 56.3243 52.2641 55.6043L55.1041 52.7803C57.0241 50.8743 56.4841 47.6043 54.0281 46.2703L50.2081 44.1923C48.5961 43.3183 46.6361 43.5743 45.3761 44.8263Z" fill="white"/>
<path d="M50.404 30.5375L52.3377 32.4712C52.46 32.5935 52.6155 32.6546 52.8045 32.6546C52.9934 32.6546 53.149 32.5935 53.2712 32.4712C53.3935 32.349 53.4546 32.1934 53.4546 32.0045C53.4546 31.8156 53.3935 31.66 53.2712 31.5377L51.3375 29.604L53.2712 27.6703C53.3935 27.548 53.4546 27.3925 53.4546 27.2035C53.4546 27.0146 53.3935 26.859 53.2712 26.7368C53.149 26.6145 52.9934 26.5534 52.8045 26.5534C52.6155 26.5534 52.46 26.6145 52.3377 26.7368L50.404 28.6705L48.4703 26.7368C48.348 26.6145 48.1924 26.5534 48.0035 26.5534C47.8146 26.5534 47.659 26.6145 47.5368 26.7368C47.4145 26.859 47.3534 27.0146 47.3534 27.2035C47.3534 27.3925 47.4145 27.548 47.5368 27.6703L49.4705 29.604L47.5368 31.5377C47.4145 31.66 47.3534 31.8156 47.3534 32.0045C47.3534 32.1934 47.4145 32.349 47.5368 32.4712C47.659 32.5935 47.8146 32.6546 48.0035 32.6546C48.1924 32.6546 48.348 32.5935 48.4703 32.4712L50.404 30.5375ZM50.404 36.272C49.4816 36.272 48.6147 36.0969 47.8035 35.7466C46.9922 35.3963 46.2865 34.9213 45.6864 34.3216C45.0863 33.7219 44.6113 33.0162 44.2614 32.2045C43.9116 31.3928 43.7364 30.526 43.736 29.604C43.7355 28.682 43.9107 27.8152 44.2614 27.0035C44.6122 26.1918 45.0872 25.4861 45.6864 24.8864C46.2856 24.2867 46.9913 23.8117 47.8035 23.4614C48.6156 23.1112 49.4825 22.936 50.404 22.936C51.3255 22.936 52.1923 23.1112 53.0045 23.4614C53.8167 23.8117 54.5224 24.2867 55.1216 24.8864C55.7208 25.4861 56.196 26.1918 56.5472 27.0035C56.8984 27.8152 57.0733 28.682 57.072 29.604C57.0707 30.526 56.8955 31.3928 56.5465 32.2045C56.1976 33.0162 55.7226 33.7219 55.1216 34.3216C54.5206 34.9213 53.8149 35.3965 53.0045 35.7472C52.1941 36.098 51.3273 36.2729 50.404 36.272Z" fill="white"/>
<defs>
<filter id="filter0_ii_16_114" x="2.8889" y="1.74963" width="74.2222" height="76.8246" filterUnits="userSpaceOnUse" color-interpolation-filters="sRGB">
<feFlood flood-opacity="0" result="BackgroundImageFix"/>
<feBlend mode="normal" in="SourceGraphic" in2="BackgroundImageFix" result="shape"/>
<feColorMatrix in="SourceAlpha" type="matrix" values="0 0 0 0 0 0 0 0 0 0 0 0 0 0 0 0 0 0 127 0" result="hardAlpha"/>
<feOffset dx="-6" dy="-2"/>
<feGaussianBlur stdDeviation="15"/>
<feComposite in2="hardAlpha" operator="arithmetic" k2="-1" k3="1"/>
<feColorMatrix type="matrix" values="0 0 0 0 1 0 0 0 0 1 0 0 0 0 1 0 0 0 0.12 0"/>
<feBlend mode="normal" in2="shape" result="effect1_innerShadow_16_114"/>
<feColorMatrix in="SourceAlpha" type="matrix" values="0 0 0 0 0 0 0 0 0 0 0 0 0 0 0 0 0 0 127 0" result="hardAlpha"/>
<feOffset dx="6" dy="2"/>
<feGaussianBlur stdDeviation="15"/>
<feComposite in2="hardAlpha" operator="arithmetic" k2="-1" k3="1"/>
<feColorMatrix type="matrix" values="0 0 0 0 0 0 0 0 0 0 0 0 0 0 0 0 0 0 0.12 0"/>
<feBlend mode="normal" in2="effect1_innerShadow_16_114" result="effect2_innerShadow_16_114"/>
</filter>
<linearGradient id="paint0_linear_16_114" x1="8.8889" y1="12.646" x2="71.1111" y2="67.354" gradientUnits="userSpaceOnUse">
<stop stop-color="#8A8A8A"/>
<stop offset="1" stop-color="#B7B7B7"/>
</linearGradient>
</defs>
</svg>
