<svg width="34" height="34" viewBox="0 0 34 34" fill="none" xmlns="http://www.w3.org/2000/svg">
<path d="M5.84517 27.522C5.62417 27.522 5.42867 27.4696 5.25867 27.3647C5.08867 27.2599 4.95645 27.1216 4.86201 26.9497C4.76001 26.7806 4.70334 26.5979 4.69201 26.4014C4.68256 26.204 4.73828 26.0052 4.85917 25.805L16.0083 6.57233C16.1292 6.37211 16.2747 6.22667 16.4447 6.136C16.6147 6.04533 16.7998 6 17 6C17.2002 6 17.3849 6.04533 17.5539 6.136C17.723 6.22667 17.8684 6.37211 17.9903 6.57233L29.1408 25.805C29.2617 26.0052 29.317 26.2036 29.3066 26.4C29.2971 26.5983 29.2405 26.7816 29.1366 26.9497C29.0421 27.1216 28.9099 27.2599 28.7399 27.3647C28.5699 27.4696 28.3749 27.522 28.1548 27.522H5.84517ZM17 24.1447C17.2474 24.1447 17.4548 24.0611 17.6219 23.8939C17.7891 23.7267 17.8722 23.5194 17.8713 23.272C17.8703 23.0246 17.7867 22.8177 17.6205 22.6515C17.4543 22.4853 17.2474 22.4012 17 22.3993C16.7526 22.3974 16.5457 22.481 16.3795 22.6501C16.2133 22.8191 16.1297 23.0264 16.1288 23.272C16.1278 23.5176 16.2114 23.7249 16.3795 23.8939C16.5476 24.063 16.7544 24.1466 17 24.1447ZM17 20.9841C17.2021 20.9841 17.3707 20.9161 17.5058 20.7801C17.6408 20.6441 17.7083 20.476 17.7083 20.2757V14.6091C17.7083 14.4079 17.6403 14.2393 17.5043 14.1033C17.3683 13.9673 17.1998 13.8998 16.9986 13.9008C16.7974 13.9017 16.6293 13.9692 16.4943 14.1033C16.3592 14.2374 16.2917 14.406 16.2917 14.6091V20.2757C16.2917 20.476 16.3597 20.6441 16.4957 20.7801C16.6317 20.9161 16.8003 20.9841 17.0014 20.9841" fill="#E42323"/>
</svg>
