<svg width="32" height="32" viewBox="0 0 32 32" fill="none" xmlns="http://www.w3.org/2000/svg">
<path d="M19.4667 10.7667C19.4667 9.81111 19.1502 9.04444 18.5173 8.46667C17.8844 7.88889 17.0453 7.6 16 7.6C15.3555 7.6 14.7724 7.73911 14.2507 8.01733C13.7289 8.29556 13.2787 8.70089 12.9 9.23333C12.5444 9.74444 12.0609 10.0391 11.4493 10.1173C10.8378 10.1956 10.3102 10.0342 9.86666 9.63333C9.55555 9.34444 9.38355 8.98889 9.35066 8.56667C9.31777 8.14444 9.4231 7.74444 9.66666 7.36667C10.3778 6.3 11.2835 5.47244 12.384 4.884C13.4844 4.29556 14.6898 4.00089 16 4C18.1555 4 19.9058 4.61111 21.2507 5.83333C22.5955 7.05556 23.2675 8.65556 23.2667 10.6333C23.2667 11.6333 23.0555 12.5333 22.6333 13.3333C22.2111 14.1333 21.4333 15.0778 20.3 16.1667C19.4778 16.9444 18.9222 17.5502 18.6333 17.984C18.3444 18.4178 18.1555 18.912 18.0667 19.4667C17.9778 20 17.7498 20.4444 17.3827 20.8C17.0155 21.1556 16.5769 21.3333 16.0667 21.3333C15.5564 21.3333 15.1178 21.1613 14.7507 20.8173C14.3835 20.4733 14.2 20.0453 14.2 19.5333C14.2 18.6667 14.3889 17.8724 14.7667 17.1507C15.1444 16.4289 15.7778 15.6676 16.6667 14.8667C17.8 13.8667 18.5502 13.0947 18.9173 12.5507C19.2844 12.0067 19.4675 11.412 19.4667 10.7667ZM16 29.3333C15.2667 29.3333 14.6391 29.0724 14.1173 28.5507C13.5955 28.0289 13.3342 27.4009 13.3333 26.6667C13.3324 25.9324 13.5938 25.3049 14.1173 24.784C14.6409 24.2631 15.2684 24.0018 16 24C16.7315 23.9982 17.3595 24.2596 17.884 24.784C18.4084 25.3084 18.6693 25.936 18.6667 26.6667C18.664 27.3973 18.4031 28.0253 17.884 28.5507C17.3649 29.076 16.7369 29.3369 16 29.3333Z" fill="#B7B7B7"/>
</svg>
