<svg width="28" height="28" viewBox="0 0 28 28" fill="none" xmlns="http://www.w3.org/2000/svg">
<path fill-rule="evenodd" clip-rule="evenodd" d="M19.6355 3.01214C21.4549 3.82542 23.3366 4.4922 25.2625 5.00608C25.6374 5.10088 25.9 5.43817 25.9 5.82486V12.2437C25.9 23.0864 15.4486 27.4858 14.3766 27.8703C14.3437 27.8821 14.3123 27.8923 14.2808 27.9026C14.2525 27.9118 14.2242 27.9211 14.1946 27.9315C14.0687 27.9758 13.9314 27.9758 13.8054 27.9315L13.711 27.8982C13.7101 27.8979 13.7086 27.8973 13.7063 27.8964C13.4204 27.7885 2.10001 23.5155 2.10001 12.2437V5.82486C2.10001 5.43817 2.36262 5.10088 2.73751 5.00608C4.66605 4.49538 6.55057 3.83144 8.37301 3.02062C10.1627 2.24563 11.8904 1.3351 13.541 0.296988C13.8214 0.1156 14.1833 0.113148 14.4675 0.288503C16.1181 1.32661 17.8458 2.23715 19.6355 3.01214ZM19.2484 9.36135L11.8658 16.744L8.77334 13.6298C8.59912 13.4562 8.39237 13.369 8.15311 13.3685C7.91384 13.3679 7.70681 13.455 7.53201 13.6298C7.3572 13.8046 7.26632 14.0116 7.25935 14.2509C7.25238 14.4902 7.33601 14.6969 7.51023 14.8711L11.256 18.6169C11.4302 18.7911 11.6335 18.8782 11.8658 18.8782C12.0981 18.8782 12.3013 18.7911 12.4756 18.6169L20.468 10.6027C20.6422 10.429 20.7293 10.2223 20.7293 9.98245C20.7293 9.74261 20.6422 9.53558 20.468 9.36135C20.2938 9.18713 20.0905 9.10002 19.8582 9.10002C19.6259 9.10002 19.4227 9.18713 19.2484 9.36135Z" fill="#41BA45"/>
</svg>
