<svg width="26" height="26" viewBox="0 0 26 26" fill="none" xmlns="http://www.w3.org/2000/svg">
<path d="M11.18 15.34L8.385 12.545C8.14666 12.3067 7.84333 12.1875 7.475 12.1875C7.10666 12.1875 6.80333 12.3067 6.565 12.545C6.32666 12.7833 6.2075 13.0867 6.2075 13.455C6.2075 13.8233 6.32666 14.1267 6.565 14.365L10.27 18.07C10.53 18.33 10.8333 18.46 11.18 18.46C11.5267 18.46 11.83 18.33 12.09 18.07L19.435 10.725C19.6733 10.4867 19.7925 10.1833 19.7925 9.815C19.7925 9.44666 19.6733 9.14333 19.435 8.905C19.1967 8.66666 18.8933 8.5475 18.525 8.5475C18.1567 8.5475 17.8533 8.66666 17.615 8.905L11.18 15.34ZM13 26C11.2017 26 9.51166 25.6585 7.93 24.9756C6.34833 24.2927 4.9725 23.3666 3.8025 22.1975C2.6325 21.0284 1.70647 19.6525 1.0244 18.07C0.342335 16.4875 0.000868312 14.7975 1.64557e-06 13C-0.00086502 11.2025 0.340602 9.51253 1.0244 7.93C1.7082 6.34747 2.63423 4.97163 3.8025 3.8025C4.97077 2.63337 6.3466 1.70733 7.93 1.0244C9.5134 0.341467 11.2034 0 13 0C14.7966 0 16.4866 0.341467 18.07 1.0244C19.6534 1.70733 21.0292 2.63337 22.1975 3.8025C23.3658 4.97163 24.2922 6.34747 24.9769 7.93C25.6616 9.51253 26.0026 11.2025 26 13C25.9974 14.7975 25.6559 16.4875 24.9756 18.07C24.2953 19.6525 23.3692 21.0284 22.1975 22.1975C21.0258 23.3666 19.6499 24.2931 18.07 24.9769C16.4901 25.6607 14.8001 26.0017 13 26Z" fill="#41BA45"/>
</svg>
