<svg width="26" height="26" viewBox="0 0 26 26" fill="none" xmlns="http://www.w3.org/2000/svg">
<path d="M13 14.82L16.77 18.59C17.0083 18.8283 17.3117 18.9475 17.68 18.9475C18.0483 18.9475 18.3517 18.8283 18.59 18.59C18.8283 18.3517 18.9475 18.0483 18.9475 17.68C18.9475 17.3117 18.8283 17.0083 18.59 16.77L14.82 13L18.59 9.23C18.8283 8.99166 18.9475 8.68833 18.9475 8.32C18.9475 7.95166 18.8283 7.64833 18.59 7.41C18.3517 7.17166 18.0483 7.0525 17.68 7.0525C17.3117 7.0525 17.0083 7.17166 16.77 7.41L13 11.18L9.23 7.41C8.99166 7.17166 8.68833 7.0525 8.32 7.0525C7.95166 7.0525 7.64833 7.17166 7.41 7.41C7.17166 7.64833 7.0525 7.95166 7.0525 8.32C7.0525 8.68833 7.17166 8.99166 7.41 9.23L11.18 13L7.41 16.77C7.17166 17.0083 7.0525 17.3117 7.0525 17.68C7.0525 18.0483 7.17166 18.3517 7.41 18.59C7.64833 18.8283 7.95166 18.9475 8.32 18.9475C8.68833 18.9475 8.99166 18.8283 9.23 18.59L13 14.82ZM13 26C11.2017 26 9.51166 25.6585 7.93 24.9756C6.34833 24.2927 4.9725 23.3666 3.8025 22.1975C2.6325 21.0284 1.70647 19.6525 1.0244 18.07C0.342335 16.4875 0.000868312 14.7975 1.64557e-06 13C-0.00086502 11.2025 0.340601 9.51253 1.0244 7.93C1.7082 6.34746 2.63423 4.97163 3.8025 3.8025C4.97076 2.63337 6.3466 1.70733 7.93 1.0244C9.5134 0.341467 11.2034 0 13 0C14.7966 0 16.4866 0.341467 18.07 1.0244C19.6534 1.70733 21.0292 2.63337 22.1975 3.8025C23.3658 4.97163 24.2922 6.34746 24.9769 7.93C25.6616 9.51253 26.0026 11.2025 26 13C25.9974 14.7975 25.6559 16.4875 24.9756 18.07C24.2953 19.6525 23.3692 21.0284 22.1975 22.1975C21.0258 23.3666 19.6499 24.2931 18.07 24.9769C16.4901 25.6607 14.8001 26.0017 13 26Z" fill="#E42323"/>
</svg>
