<svg width="21" height="21" viewBox="0 0 21 21" fill="none" xmlns="http://www.w3.org/2000/svg">
<path d="M16.6904 4.30957C17.4768 5.09649 18.1007 6.02272 18.5615 7.08789C19.0222 8.15295 19.2518 9.29031 19.25 10.5C19.2483 11.7097 19.0184 12.847 18.5605 13.9121C18.1026 14.9773 17.4791 15.9035 16.6904 16.6904C15.9018 17.4773 14.9755 18.1013 13.9121 18.5615C12.8488 19.0217 11.7114 19.2512 10.5 19.25C9.28972 19.25 8.15238 19.0201 7.08789 18.5605C6.02331 18.1009 5.09707 17.4773 4.30957 16.6904C4.29067 16.6715 4.27262 16.6519 4.25391 16.6328L5.47852 15.4082C5.49717 15.4272 5.51526 15.4469 5.53418 15.4658C6.89043 16.8221 8.54584 17.5 10.5 17.5C11.2875 17.5 12.0462 17.3721 12.7754 17.1172C13.5042 16.8623 14.1748 16.4943 14.7871 16.0127L9.83106 11.0566L11.0566 9.83105L16.0127 14.7871C16.4937 14.1748 16.8617 13.5042 17.1172 12.7754C17.3727 12.0462 17.5006 11.2875 17.5 10.5C17.5 8.54583 16.8221 6.89043 15.4658 5.53418C15.4469 5.51526 15.4272 5.49717 15.4082 5.47852L16.6328 4.25391C16.6519 4.27261 16.6715 4.29067 16.6904 4.30957ZM10.5 1.75C11.7091 1.75 12.8465 1.97989 13.9121 2.43945C14.3072 2.60987 14.6833 2.80316 15.04 3.01855L13.7803 4.27832C12.8009 3.7602 11.7078 3.5 10.5 3.5C9.7125 3.5 8.95378 3.6279 8.22461 3.88281C7.49576 4.13768 6.82517 4.50571 6.21289 4.9873L9.64258 8.41699L8.41699 9.64258L4.98731 6.21289C4.50629 6.82516 4.13826 7.49576 3.88281 8.22461C3.62731 8.95378 3.49942 9.7125 3.5 10.5C3.5 11.7078 3.7602 12.8009 4.27832 13.7803L3.01856 15.04C2.8031 14.6832 2.60973 14.3072 2.43945 13.9121C1.98047 12.847 1.75058 11.7097 1.75 10.5C1.74942 9.2903 1.9793 8.15296 2.43945 7.08789C2.8997 6.02272 3.52324 5.09649 4.30957 4.30957C5.0959 3.52265 6.02214 2.89912 7.08789 2.43945C8.15354 1.97989 9.29088 1.75 10.5 1.75Z" fill="#777984"/>
<rect x="19.4735" y="1.41418" width="2" height="25.5398" rx="1" transform="rotate(45 19.4735 1.41418)" fill="#45495E"/>
</svg>
